<svg width="130" height="46" viewBox="0 0 130 46" fill="none" xmlns="http://www.w3.org/2000/svg">
<path d="M27.9 22.4C27.9 19.5 30.3 18 30.4 18C29.1 16.1 26.9 15.7 26.2 15.7C24.4 15.5 22.7 16.8 21.9 16.8C20.9 16.8 19.6 15.7 18 15.8C16.1 15.8 14.3 16.9 13.3 18.7C11.3 22.2 12.8 27.4 14.7 30.3C15.7 31.8 16.9 33.2 18.3 33.2C19.7 33.1 20.3 32.2 22 32.2C23.7 32.2 24.3 33.2 25.7 33C27.3 33 28.2 31.5 29.2 30.2C30.3 28.6 30.8 27.1 30.8 26.9C30.9 27.1 27.9 25.9 27.9 22.4Z" fill="white"/>
<path d="M25.0001 13.9C25.8001 12.9 26.3001 11.6 26.2001 10.3C25.1001 10.3 23.7001 11.1 22.8001 12C22.1001 12.8 21.5001 14.3 21.6001 15.5C22.9001 15.6 24.3001 14.9 25.0001 13.9Z" fill="white"/>
<path d="M46.3 29.7H41.4L40.2 33.2H38L42.8 20.1H45L49.7 33.2H47.5L46.3 29.7ZM41.8 28H45.8L43.9 22.2L41.8 28ZM59.9 28.5C59.9 31.5 58.3 33.3 55.9 33.3C54.6 33.3 53.5 32.7 52.9 31.6V36.3H51V23.6H52.9V25.2C53.5 24.2 54.6 23.5 55.9 23.5C58.2 23.5 59.9 25.4 59.9 28.5ZM57.9 28.5C57.9 26.6 56.9 25.2 55.4 25.2C54 25.2 52.9 26.5 52.9 28.5C52.9 30.5 53.9 31.8 55.4 31.8C56.9 31.6 57.9 30.4 57.9 28.5ZM70.4 28.5C70.4 31.5 68.8 33.3 66.4 33.3C65.1 33.3 64 32.7 63.4 31.6V36.3H61.5V23.6H63.3V25.2C63.9 24.2 65 23.5 66.3 23.5C68.7 23.5 70.4 25.4 70.4 28.5ZM68.3 28.5C68.3 26.6 67.3 25.2 65.8 25.2C64.4 25.2 63.3 26.5 63.3 28.5C63.3 30.5 64.3 31.8 65.8 31.8C67.4 31.6 68.3 30.4 68.3 28.5ZM77.2 29.5C77.3 30.8 78.6 31.7 80.3 31.7C82 31.7 83.2 30.9 83.2 29.6C83.2 28.6 82.5 28 80.8 27.5L79.1 27.1C76.7 26.5 75.6 25.4 75.6 23.6C75.6 21.3 77.5 19.7 80.3 19.7C83.1 19.7 85 21.3 85 23.6H83.1C83 22.3 81.9 21.5 80.3 21.5C78.7 21.5 77.7 22.3 77.7 23.4C77.7 24.4 78.4 24.9 80.1 25.3L81.5 25.7C84.1 26.3 85.2 27.4 85.2 29.3C85.2 31.7 83.3 33.3 80.1 33.3C77.2 33.3 75.3 31.8 75.2 29.4C75.3 29.7 77.2 29.5 77.2 29.5ZM89.5 21.4V23.7H91.3V25.2H89.5V30.5C89.5 31.3 89.9 31.7 90.7 31.7H91.3V33.3C91.1 33.3 90.7 33.4 90.2 33.4C88.3 33.4 87.6 32.7 87.6 30.9V25.2H86.2V23.6H87.5V21.3L89.5 21.4ZM92.3 28.5C92.3 25.5 94.1 23.7 96.8 23.7C99.6 23.7 101.3 25.6 101.3 28.5C101.3 31.5 99.5 33.3 96.8 33.3C94.1 33.3 92.3 31.5 92.3 28.5ZM99.4 28.5C99.4 26.4 98.4 25.2 96.9 25.2C95.3 25.2 94.4 26.4 94.4 28.5C94.4 30.6 95.4 31.8 96.9 31.8C98.4 31.7 99.4 30.5 99.4 28.5ZM103 23.6H104.8V25.2C105 24.1 106 23.5 107.1 23.5C107.3 23.5 107.6 23.5 107.8 23.6V25.4C107.7 25.3 107.3 25.3 107 25.3C105.8 25.3 105 26.1 105 27.5V33.2H103.1C103 33.2 103 23.6 103 23.6ZM116.9 30.4C116.7 32.1 115 33.3 112.8 33.3C110 33.3 108.3 31.5 108.3 28.5C108.3 25.5 110 23.5 112.8 23.5C115.4 23.5 117.1 25.3 117.1 28.2V28.9H110.2V29.1C110.2 30.8 111.2 31.8 112.7 31.8C113.8 31.8 114.6 31.3 114.9 30.5C114.9 30.4 116.9 30.4 116.9 30.4ZM110.2 27.5H115C115 26 114 25.1 112.7 25.1C111.3 25.1 110.4 26 110.2 27.5ZM41.6 10.2C43.4 10.2 44.6 11.3 44.6 13.3C44.6 15.3 43.5 16.4 41.6 16.4H39.3V10.1H41.6V10.2ZM40.4 15.6H41.6C42.9 15.6 43.6 14.8 43.6 13.3C43.6 11.8 42.9 11 41.6 11H40.4V15.6ZM45.7 14.2C45.7 12.6 46.5 11.8 48 11.8C49.3 11.8 50.3 12.8 50.3 14.2C50.3 15.8 49.5 16.6 48 16.6C46.5 16.6 45.7 15.6 45.7 14.2ZM49.2 14.2C49.2 13.1 48.7 12.5 47.9 12.5C47.1 12.5 46.6 13.1 46.6 14.2C46.6 15.3 47.1 15.9 47.9 15.9C48.7 15.7 49.2 15.1 49.2 14.2ZM56 16.5H55L54 13H53.9L52.9 16.5H51.9L50.6 11.8H51.6L52.4 15.4H52.5L53.5 11.8H54.3L55.3 15.4H55.4L56.2 11.8H57.2C57.4 11.8 56 16.5 56 16.5ZM58.5 11.8H59.3V12.5H59.4C59.6 12 60.1 11.7 60.8 11.7C61.9 11.7 62.5 12.3 62.5 13.5V16.5H61.5V13.6C61.5 12.9 61.1 12.5 60.5 12.5C59.8 12.5 59.4 13 59.4 13.7V16.5H58.3C58.5 16.5 58.5 11.8 58.5 11.8ZM64 9.90002H65V16.6H64V9.90002ZM66.2 14.2C66.2 12.6 67 11.8 68.5 11.8C69.8 11.8 70.8 12.8 70.8 14.2C70.8 15.8 70 16.6 68.5 16.6C67.1 16.6 66.2 15.6 66.2 14.2ZM69.8 14.2C69.8 13.1 69.3 12.5 68.5 12.5C67.7 12.5 67.2 13.1 67.2 14.2C67.2 15.3 67.7 15.9 68.5 15.9C69.3 15.7 69.8 15.1 69.8 14.2ZM71.7 15.1C71.7 14.3 72.3 13.8 73.5 13.6L74.8 13.5V13.1C74.8 12.6 74.4 12.4 73.8 12.4C73.3 12.4 73 12.6 72.8 12.9H71.8C71.9 12.1 72.6 11.6 73.7 11.6C74.9 11.6 75.5 12.2 75.5 13.2V16.5H74.7V15.8H74.6C74.4 16.3 73.8 16.5 73.2 16.5C72.3 16.6 71.7 16 71.7 15.1ZM74.7 14.8V14.4L73.5 14.5C72.9 14.5 72.5 14.7 72.5 15.2C72.5 15.7 72.9 15.9 73.3 15.9C74.2 15.7 74.7 15.4 74.7 14.8ZM76.9 14.2C76.9 12.7 77.6 11.8 78.8 11.8C79.4 11.8 80 12.2 80.2 12.6H80.3V9.90002H81.3V16.6H80.5V15.9H80.4C80.2 16.4 79.6 16.7 79 16.7C77.6 16.6 76.9 15.6 76.9 14.2ZM77.8 14.2C77.8 15.2 78.3 15.8 79.1 15.8C79.9 15.8 80.4 15.2 80.4 14.2C80.4 13.2 79.9 12.6 79.1 12.6C78.3 12.5 77.8 13.1 77.8 14.2ZM85.2 14.2C85.2 12.6 86 11.8 87.5 11.8C88.8 11.8 89.8 12.8 89.8 14.2C89.8 15.8 89 16.6 87.5 16.6C86 16.6 85.2 15.6 85.2 14.2ZM88.7 14.2C88.7 13.1 88.2 12.5 87.4 12.5C86.6 12.5 86.1 13.1 86.1 14.2C86.1 15.3 86.6 15.9 87.4 15.9C88.2 15.7 88.7 15.1 88.7 14.2ZM90.8 11.8H91.6V12.5H91.7C91.9 12 92.4 11.7 93.1 11.7C94.2 11.7 94.8 12.3 94.8 13.5V16.5H93.8V13.6C93.8 12.9 93.4 12.5 92.8 12.5C92.1 12.5 91.7 13 91.7 13.7V16.5H90.7L90.8 11.8ZM100.1 10.5V11.7H101.2V12.5H100.1V14.9C100.1 15.4 100.3 15.6 100.8 15.6H101.2V16.3H100.7C99.6 16.3 99.3 15.9 99.3 15V12.5H98.6V11.7H99.3V10.5H100.1ZM102.5 9.90002H103.5V12.6H103.6C103.8 12.1 104.3 11.8 105 11.8C106 11.8 106.7 12.4 106.7 13.6V16.6H105.7V13.8C105.7 13.1 105.3 12.7 104.7 12.7C104 12.7 103.5 13.2 103.5 13.9V16.7H102.5C102.6 16.7 102.5 9.90002 102.5 9.90002ZM112 15.3C111.8 16.1 111 16.6 110 16.6C108.7 16.6 107.8 15.6 107.8 14.2C107.8 12.6 108.6 11.7 110 11.7C111.3 11.7 112.2 12.5 112.2 14.1V14.5H108.8C108.8 15.3 109.3 15.8 110 15.8C110.6 15.8 111 15.6 111.1 15.2C111.1 15.1 112 15.3 112 15.3ZM108.7 13.7H111.1C111.1 13 110.6 12.5 109.9 12.5C109.3 12.5 108.8 13 108.7 13.7Z" fill="white"/>
<rect x="0.5" y="0.5" width="129" height="45" rx="5.5" stroke="white"/>
</svg>
