
<svg width="14" height="10" viewBox="0 0 14 10" fill="none" xmlns="http://www.w3.org/2000/svg">
<path id="Vector" d="M4.82222 5.54177C4.82222 5.12705 4.94995 4.72164 5.18924 4.37681C5.42854 4.03198 5.76866 3.76322 6.1666 3.60451C6.56454 3.44581 7.00242 3.40428 7.42486 3.48519C7.84731 3.5661 8.23535 3.76581 8.53992 4.05906C8.84449 4.35231 9.0519 4.72594 9.13593 5.13269C9.21996 5.53944 9.17684 5.96106 9.012 6.34421C8.84717 6.72736 8.56804 7.05485 8.20991 7.28526C7.85178 7.51566 7.43072 7.63864 7 7.63864C6.42262 7.63802 5.86907 7.4169 5.46079 7.02379C5.05252 6.63069 4.82287 6.0977 4.82222 5.54177ZM0 8.94681V2.43632C0 2.15699 0.115245 1.8891 0.320382 1.69158C0.525519 1.49406 0.803745 1.38309 1.09385 1.38309H4.02557C4.11541 1.38309 4.2026 1.35375 4.27287 1.29987C4.34315 1.24598 4.39237 1.17073 4.41248 1.08643L4.6021 0.291524C4.62186 0.208678 4.67023 0.134738 4.73929 0.0817854C4.80835 0.0288332 4.89402 6.68734e-07 4.98231 0H9.01769C9.10598 4.16487e-07 9.19165 0.0288332 9.26071 0.0817859C9.32978 0.134739 9.37814 0.20868 9.39791 0.291527L9.58752 1.08643C9.60763 1.17074 9.65685 1.24598 9.72713 1.29987C9.79741 1.35376 9.88459 1.3831 9.97443 1.38309H12.9062C13.0498 1.38309 13.1921 1.41033 13.3248 1.46326C13.4575 1.51619 13.5781 1.59377 13.6796 1.69156C13.7812 1.78936 13.8618 1.90547 13.9167 2.03324C13.9717 2.16102 14 2.29798 14 2.43628V8.94677C14 9.2261 13.8848 9.49399 13.6796 9.69151C13.4745 9.88903 13.1963 10 12.9061 10H1.09383C0.950183 10 0.807946 9.97276 0.675236 9.91983C0.542527 9.8669 0.421944 9.78933 0.320373 9.69153C0.218802 9.59373 0.138231 9.47763 0.0832614 9.34985C0.0282917 9.22207 -6.1283e-07 9.08512 0 8.94681ZM10.9054 3.08479C10.9054 3.1099 10.9106 3.13476 10.9206 3.15796C10.9305 3.18116 10.9452 3.20224 10.9636 3.22C10.982 3.23775 11.0039 3.25183 11.028 3.26144C11.0521 3.27105 11.0779 3.276 11.104 3.276H12.7026C12.7287 3.276 12.7545 3.27105 12.7786 3.26144C12.8027 3.25183 12.8246 3.23775 12.843 3.21999C12.8615 3.20224 12.8761 3.18116 12.8861 3.15796C12.896 3.13476 12.9012 3.1099 12.9012 3.08479V2.66415C12.9012 2.61344 12.8802 2.5648 12.843 2.52895C12.8058 2.49309 12.7553 2.47294 12.7026 2.47294H11.104C11.0514 2.47294 11.0008 2.49309 10.9636 2.52895C10.9264 2.5648 10.9054 2.61344 10.9054 2.66415V3.08479ZM3.57778 5.54177C3.57778 6.19348 3.77849 6.83055 4.15453 7.37242C4.53056 7.9143 5.06504 8.33663 5.69037 8.58603C6.3157 8.83543 7.0038 8.90068 7.66764 8.77354C8.33149 8.6464 8.94127 8.33257 9.41988 7.87175C9.89848 7.41092 10.2244 6.82379 10.3565 6.18461C10.4885 5.54543 10.4207 4.88289 10.1617 4.2808C9.9027 3.6787 9.46407 3.16408 8.90129 2.80201C8.3385 2.43994 7.67685 2.24669 7 2.24669C6.09269 2.24767 5.22282 2.59515 4.58126 3.21288C3.93969 3.83062 3.5788 4.66816 3.57778 5.54177Z" fill="currentColor"/>
</svg>
