
<svg width="151" height="24" viewBox="0 0 151 24" fill="none" xmlns="http://www.w3.org/2000/svg">
<path fill-rule="evenodd" clip-rule="evenodd" d="M52.9456 0C53.1694 0 54.0284 0.273156 54.4199 0.45145C54.615 0.549923 54.9413 0.767325 54.9317 1.11589C54.9241 1.39366 54.6832 1.98449 53.1554 2.82101L53.1547 2.82139C52.3462 3.26393 52.0436 3.42957 51.5068 2.99088C51.5008 2.98607 50.9302 2.48528 51.3099 2.2386C52.2679 1.8068 52.9083 1.37621 53.2133 0.958855C53.3104 0.826288 53.4137 0.625733 53.3569 0.421968C53.3203 0.291128 53.221 0.221521 53.1216 0.151915C53.0573 0.106824 52.9929 0.0617345 52.9456 0ZM49.9825 2.75352C50.0917 2.73049 50.2047 2.70662 50.418 2.79033C50.8725 2.96882 51.3001 3.56988 50.7215 3.84565C49.0506 4.39637 48.2145 4.52894 48.2085 4.52954C48.0761 4.54198 47.7685 4.46035 47.6618 4.13024C47.6191 3.99767 47.5619 3.467 48.0645 3.29071C48.3674 3.21981 48.6644 3.1279 48.9614 3.03599C49.2987 2.9316 49.636 2.82721 49.982 2.75362L49.9825 2.75352ZM46.4169 3.5745C46.4506 3.57099 46.4846 3.57039 46.5184 3.57269C46.9524 3.62123 47.1002 4.33982 46.6408 4.74173C46.2609 5.07425 45.6939 4.91521 45.7525 4.36649C45.7816 4.09434 46.0128 3.65412 46.4169 3.5745ZM55.5283 0.954627C55.5475 0.971445 55.6375 1.03187 55.7652 1.11433C57.0417 2.18114 54.3974 3.70095 51.6385 4.71108C50.9472 5.0432 51.405 5.71446 51.4098 5.72108L51.4098 5.72109C51.6838 6.0889 51.967 6.46914 54.6687 5.08652C55.3546 4.73555 57.4413 3.66759 57.471 2.61889C57.4808 2.26923 57.2754 2.09054 57.0767 1.91771L57.0765 1.91755L57.0745 1.91618L57.0766 1.91749C56.8991 1.79353 56.6884 1.65421 56.4757 1.51757C56.2659 1.38116 56.0542 1.24743 55.8691 1.13703L55.8621 1.13272L55.5662 0.971473L55.5631 0.969912C55.5524 0.964675 55.5391 0.958083 55.5283 0.954627ZM61.4653 8.26794L61.5925 8.76211C61.6724 9.12761 61.7503 9.61242 61.812 9.99582L61.812 9.996L61.8241 10.0711C61.8255 10.2151 61.8111 10.4111 61.7649 10.5475C60.9615 12.9192 49.7003 17.2997 48.8087 15.5872C48.8043 15.5788 48.4232 14.7308 49.5969 14.3927C55.6616 13.1308 61.7591 10.4949 61.4653 8.26794ZM45.4307 15.0134C46.759 14.8764 46.759 14.8764 47.1058 15.0744C47.6761 15.3997 47.8619 16.3315 46.7189 16.5615C42.4511 17.0252 42.3111 16.7087 42.0321 16.0784L42.0321 16.0784C42.0283 16.0693 41.6625 15.1841 42.5628 15.1171C43.9602 15.1404 44.9594 15.0622 45.4307 15.0134ZM39.9475 15.6333C39.8372 15.2868 39.829 14.7637 40.2773 14.8355C40.8849 15.0144 41.2961 15.9564 41.0666 16.373C40.8368 16.7907 40.1778 16.3553 39.9475 15.6333ZM51.9434 17.7819C51.8449 17.5998 51.7781 17.0061 52.7265 16.6774C58.1612 15.1841 61.6797 13.2052 61.9089 11.5133C61.8885 12.0446 61.8313 12.7518 61.771 13.28C61.7643 13.3041 61.7577 13.3311 61.7509 13.359C61.7362 13.4186 61.7206 13.4825 61.7012 13.5323C60.9479 15.4757 52.6491 19.0897 51.9434 17.7819ZM49.7665 17.3722C49.9173 17.3609 50.2374 17.3856 50.4807 17.5486C50.8908 17.823 50.9494 18.5123 49.9534 18.7714C45.5342 19.5594 45.314 19.2544 44.9807 18.7925C44.9753 18.7853 44.4875 18.0649 45.528 17.9151C47.0452 17.8007 48.0742 17.6535 48.6705 17.55C48.7581 17.5348 48.8535 17.5168 48.9524 17.4981C49.224 17.4468 49.5231 17.3902 49.7665 17.3722ZM42.409 18.6328C42.2307 18.3458 42.1621 17.895 42.7379 17.908C43.4288 17.9871 44.0132 18.6419 43.9039 19.0436C43.7665 19.549 42.8163 19.2883 42.409 18.6328ZM55.7325 18.3036C54.9329 18.6464 54.8859 19.1494 54.9327 19.2984C55.2507 20.3162 60.1996 17.5361 60.8386 16.3871C60.8462 16.3733 60.8544 16.3559 60.862 16.3395L60.8725 16.3173L60.9408 16.1488L60.9409 16.1487L60.9409 16.1486C61.0594 15.8567 61.198 15.5155 61.2929 15.2436L61.472 14.6622C60.8159 16.2927 57.5942 17.6436 55.7325 18.3036ZM53.7841 19.1989C53.6012 19.0776 53.3312 19.0808 53.2005 19.1019C52.5401 19.2084 51.8895 19.3611 51.2389 19.5138C50.6057 19.6624 49.9725 19.8111 49.3303 19.9171C48.4531 20.1129 48.6174 20.5571 48.7439 20.6977L48.744 20.6977C49.0311 21.0156 49.2581 21.2668 53.179 20.2569C54.0388 19.9705 54.0853 19.3993 53.7841 19.1989ZM46.329 20.2278C45.6592 20.2879 45.7232 20.6515 45.9211 20.8669C46.4099 21.3988 47.5799 21.4417 47.613 20.9291C47.6342 20.597 47.0665 20.2101 46.329 20.2278ZM56.3981 20.813C56.3991 20.8083 56.5241 20.3316 57.224 19.9698C59.4674 18.9348 59.9341 18.2829 60.2129 17.8934L60.2131 17.8931C59.9999 18.2322 59.6938 18.6706 59.462 18.9973L59.1672 19.367C59.0557 19.4925 58.8232 19.7538 58.2922 20.1086C58.2721 20.1222 56.2698 21.4443 56.3981 20.813ZM54.558 20.9682C55.4754 20.6698 55.4754 20.6698 55.6298 20.7386C55.8919 20.8559 55.6547 21.3619 54.9694 21.6346C51.9716 22.6253 51.789 22.4154 51.6277 22.2301L51.6277 22.2301C51.5441 22.1336 51.4705 21.8115 52.2067 21.6015C53.411 21.3184 54.1503 21.101 54.558 20.9682ZM49.2 22.5738C48.9838 22.3929 49.0861 22.1519 49.6316 22.0612C50.2659 21.9898 50.652 22.2158 50.6869 22.4066C50.7607 22.8113 49.6352 22.9376 49.2 22.5738ZM60.981 6.87443L60.9714 6.85137C60.747 6.37304 60.4277 5.7441 60.1682 5.28403C61.1018 7.39648 55.0703 10.0811 48.9467 11.3568C47.8224 11.6841 48.1551 12.5425 48.1589 12.551C48.9347 14.2579 60.2027 9.8956 60.9852 7.5854C61.0955 7.26007 61.0294 7.03752 60.9811 6.87469L60.981 6.87443ZM46.5547 12.0191C46.2398 11.8183 46.2398 11.8183 44.9761 11.9491L44.9761 11.9491C44.5269 11.9954 43.5744 12.0702 42.2427 12.0482C41.3625 12.1178 41.545 13.0217 41.5472 13.0307C41.7029 13.7088 41.774 14.0182 46.0625 13.5523C47.1935 13.3189 47.0848 12.3568 46.5547 12.0191ZM40.0707 11.7788C39.6339 11.7116 39.5094 12.2425 39.5336 12.5927C39.5834 13.3111 40.1171 13.7701 40.4698 13.3979C40.8397 13.0072 40.6598 11.9577 40.0707 11.7788ZM58.8898 3.56446L59.3567 4.1196C59.5715 4.39316 59.6098 4.698 59.4734 5.05098C59.0627 6.11493 57.0895 7.26451 55.3797 7.98571C50.409 10.0823 50.1386 9.55445 49.9003 9.08896C49.8961 9.08114 49.5395 8.28453 50.502 7.93216C56.1537 6.36622 59.377 4.21787 58.1664 2.82401C58.3356 2.98427 58.5368 3.1951 58.7177 3.38476L58.7178 3.38479C58.778 3.44791 58.836 3.50868 58.8898 3.56446ZM48.2355 8.56576C48.2947 8.58712 48.3498 8.61979 48.4234 8.66338L48.4235 8.66338C48.9339 8.96602 49.0652 9.87173 48.0077 10.1663C43.5738 10.9569 43.5293 10.6657 43.4322 10.0276C43.4308 10.0189 43.3422 9.15474 44.2784 9.00252C45.5894 8.90365 46.4787 8.77609 46.9937 8.68665C47.845 8.53893 48.0584 8.50189 48.2355 8.56576ZM41.0904 9.8605C41.1186 9.52216 41.3587 8.98688 41.8815 8.99049C42.5711 9.08234 42.636 10.0861 42.1292 10.5211C41.6333 10.9469 41.0312 10.564 41.0904 9.8605ZM50.108 5.41784C49.936 5.3318 49.7276 5.32458 49.6899 5.3304C49.1743 5.41162 48.6667 5.52988 48.1592 5.64813C47.6779 5.76026 47.1966 5.87239 46.7086 5.95292C45.9804 6.14044 45.9511 6.78482 45.9832 6.94727C46.062 7.34598 46.4455 7.4639 46.6083 7.45648C46.617 7.45608 47.6949 7.35841 50.0037 6.76437C50.8487 6.4499 50.5892 5.6583 50.108 5.41784ZM44.5486 6.18897C44.5048 6.18305 44.4605 6.18064 44.4163 6.18175C43.9008 6.23851 43.6062 6.73188 43.5617 7.0638C43.4807 7.66947 44.0739 7.9697 44.6022 7.59085C45.2303 7.14041 45.105 6.28624 44.5486 6.18897Z" fill="white"/>
<path d="M4.09894 4.31511V18.2737H15.6203L13.6262 22.3726H0V0.216167H15.6646L13.6705 4.31511H4.09894ZM5.73852 9.23384H11.2998L9.32787 13.3549H5.73852V9.23384Z" fill="white"/>
<path d="M29.1602 12.8897L25.0391 4.33727L29.1824 12.8675L29.1602 12.8897ZM23.045 0.216167L31.4645 17.5868L29.1602 22.3726L18.4808 0.216167H23.045ZM33.3035 4.33727H26.8781L24.884 0.216167H35.2975H37.0922H39.8618L32.395 15.7035L30.0908 10.9842L30.6004 9.89854L30.6225 9.92069L33.3035 4.33727Z" fill="white"/>
<path d="M83.4587 6.77448C83.4587 8.2368 83.023 9.54403 82.1515 10.6962C81.2948 11.8483 80.1944 12.6312 78.8502 13.0448L83.3479 22.3726H78.7837L72.447 9.23384H76.9004C77.5799 9.23384 78.156 8.99751 78.6286 8.52484C79.1161 8.03739 79.3598 7.45394 79.3598 6.77448C79.3598 6.09501 79.1161 5.51895 78.6286 5.04627C78.156 4.55883 77.5799 4.31511 76.9004 4.31511H70.8074V12.7789V22.3726H66.7085V0.216167H76.9004C78.7025 0.216167 80.246 0.858704 81.5311 2.14378C82.8162 3.42885 83.4587 4.97242 83.4587 6.77448Z" fill="white"/>
<path d="M87.5767 0.216167H92.5176V4.31511H87.5767V0.216167ZM104.814 18.2737V22.3726H99.8957V18.2737H104.814ZM98.2561 4.31511V22.3726H96.5501H87.5767V18.2737H94.135L94.1572 0.216167H96.1956H104.814V4.31511H98.2561Z" fill="white"/>
<path d="M118.242 18.9C119.262 18.9 120.2 18.6046 121.056 18.0137L123.981 20.9384C122.327 22.3269 120.414 23.0211 118.242 23.0211C116.086 23.0211 114.173 22.3269 112.504 20.9384L115.451 18.0137C116.278 18.6046 117.209 18.9 118.242 18.9ZM123.117 0.216167H127.238V14.0477C127.238 16.1747 126.544 18.0876 125.155 19.7863L122.209 16.8394C122.814 16.027 123.117 15.0965 123.117 14.0477V0.216167ZM113.39 14.0477C113.39 15.0817 113.686 16.0123 114.276 16.8394L111.352 19.7863C109.963 18.1171 109.269 16.2043 109.269 14.0477V0.216167H113.39V14.0477Z" fill="white"/>
<path d="M131.966 0L140.663 7.61642V13.4436L136.087 10.1644V22.3726H131.966V0ZM142.303 7.61642L151 0V22.3726H146.879V10.1644L142.303 13.4436V9.256V7.61642Z" fill="white"/>
</svg>
