<svg width="144" height="46" viewBox="0 0 144 46" fill="none" xmlns="http://www.w3.org/2000/svg">
<path d="M52.0001 12.7C52.0001 13.5 51.8001 14.2999 51.2001 14.7999C50.6001 15.3999 49.9001 15.7999 48.9001 15.7999C47.9001 15.7999 47.2001 15.3999 46.6001 14.7999C46.0001 14.1999 45.6001 13.3999 45.6001 12.4999C45.6001 11.4999 46.0001 10.8 46.6001 10.2C47.2001 9.59995 48.0001 9.19995 48.9001 9.19995C49.4001 9.19995 49.7001 9.29995 50.2001 9.39995C50.6001 9.49995 50.9001 9.79995 51.2001 10.0999L50.6001 10.7C50.2001 10.2 49.6001 9.99995 48.9001 9.99995C48.2001 9.99995 47.7001 10.2 47.2001 10.7C46.7001 11.2 46.5001 11.7999 46.5001 12.4999C46.5001 13.1999 46.7001 13.7999 47.2001 14.2999C47.7001 14.7999 48.3001 14.9999 48.9001 14.9999C49.6001 14.9999 50.2001 14.7999 50.7001 14.2999C51.1001 13.8999 51.2001 13.5999 51.2001 12.9999H48.9001V12.2H51.9001C52.0001 12.5 52.0001 12.6 52.0001 12.7ZM56.8001 10.2H53.9001V12.2999H56.6001V12.8999H53.9001V14.8999H56.8001V15.5999H53.1001V9.29995H56.8001V10.2ZM60.3001 15.5999H59.5001V10.2H57.7001V9.39995H62.0001V10.0999H60.2001V15.7H60.3001V15.5999ZM65.1001 15.5999V9.29995H65.9001V15.5999H65.1001ZM69.6001 15.5999H68.8001V10.2H67.1001V9.39995H71.4001V10.0999H69.6001V15.5999ZM79.6001 14.8999C79.0001 15.4999 78.2001 15.8999 77.3001 15.8999C76.3001 15.8999 75.6001 15.4999 75.0001 14.8999C74.4001 14.2999 74.0001 13.4999 74.0001 12.5999C74.0001 11.7999 74.4001 10.8999 75.0001 10.2999C75.5001 9.59995 76.3001 9.19995 77.2001 9.19995C78.2001 9.19995 78.9001 9.59995 79.5001 10.2C80.1001 10.8 80.5001 11.5999 80.5001 12.4999C80.5001 13.3999 80.2001 14.0999 79.6001 14.8999ZM75.5001 14.2999C76.0001 14.7999 76.6001 14.9999 77.2001 14.9999C77.8001 14.9999 78.4001 14.7999 78.9001 14.2999C79.4001 13.7999 79.6001 13.1999 79.6001 12.4999C79.6001 11.7999 79.4001 11.2 78.9001 10.7C78.4001 10.2 77.8001 9.99995 77.2001 9.99995C76.6001 9.99995 76.0001 10.2 75.5001 10.7C75.0001 11.2 74.8001 11.7999 74.8001 12.4999C74.8001 13.1999 75.0001 13.7999 75.5001 14.2999ZM81.7001 15.5999V9.29995H82.7001L85.7001 14.2999V9.29995H86.5001V15.5999H85.7001L82.4001 10.3999V15.5999H81.7001Z" fill="white" stroke="white" stroke-width="0.2413" stroke-miterlimit="10"/>
<path d="M73.7999 24.9C71.2999 24.9 69.2999 26.8 69.2999 29.4C69.2999 31.9 71.2999 33.9 73.7999 33.9C76.2999 33.9 78.2999 32 78.2999 29.4C78.2999 26.7 76.1999 24.9 73.7999 24.9ZM73.7999 32C72.5 32 71.2999 30.9 71.2999 29.3C71.2999 27.7 72.5 26.6 73.7999 26.6C75.0999 26.6 76.2999 27.7 76.2999 29.3C76.4 30.9 75.0999 32 73.7999 32ZM64.1 24.9C61.6 24.9 59.6 26.8 59.6 29.4C59.6 31.9 61.6 33.9 64.1 33.9C66.6 33.9 68.6 32 68.6 29.4C68.5 26.7 66.5 24.9 64.1 24.9ZM64.1 32C62.8 32 61.6 30.9 61.6 29.3C61.6 27.7 62.8 26.6 64.1 26.6C65.4 26.6 66.6 27.7 66.6 29.3C66.6 30.9 65.4 32 64.1 32ZM52.3999 26.2V28.1H57C56.9 29.2 56.4999 29.9 55.8999 30.5C55.2999 31.1 54.1999 31.9 52.3999 31.9C49.5999 31.9 47.5 29.6 47.5 26.8C47.5 24 49.6999 21.7 52.3999 21.7C53.9999 21.7 55.0999 22.3 55.7999 23L57.1 21.7C56 20.8 54.4 19.9 52.2 19.9C48.3 19.9 45.2 23 45.2 26.9C45.2 30.8 48.5 33.9 52.2 33.9C54.2 33.9 55.8 33.2 57 32C58.2 30.8 58.7 29 58.7 27.5C58.7 27 58.7 26.7 58.6 26.3L52.3999 26.2ZM100 27.7C99.6 26.7 98.5999 24.9 96.2999 24.9C94 24.9 92.1 26.7 92.1 29.4C92.1 31.9 94 33.9 96.6 33.9C98.6 33.9 99.9 32.7 100.3 32L98.7 31C98.2 31.7 97.5 32.2 96.5 32.2C95.5 32.2 94.7999 31.7 94.2999 30.9L100.3 28.4L100 27.7ZM94 29.2C94 27.5 95.2999 26.5 96.2999 26.5C97 26.5 97.7 26.9 98 27.5L94 29.2ZM89 33.6H90.8999V20.4H89V33.6ZM85.8999 25.9C85.3999 25.4 84.6 24.9 83.5 24.9C81.2 24.9 79.2 26.8 79.2 29.4C79.2 31.9 81.2 33.9 83.5 33.9C84.6 33.9 85.3999 33.4 85.8999 32.9H86V33.5C86 35.2 85 36.2 83.6 36.2C82.4 36.2 81.7 35.4 81.2999 34.6L79.6 35.3C80.1 36.5 81.4 38 83.6 38C85.9 38 87.7999 36.7 87.7999 33.3V25.2H86L85.8999 25.9ZM83.6 32C82.3 32 81.1 30.9 81.1 29.3C81.1 27.7 82.2 26.5 83.6 26.5C84.9 26.5 86 27.7 86 29.3C86 30.9 84.9 32 83.6 32ZM109.3 20.4H104.6V33.6H106.5V28.5H109.3C111.5 28.5 113.6 26.9 113.6 24.4C113.6 21.9 111.4 20.4 109.3 20.4ZM109.3 26.7H106.5V22.2H109.3C110.7 22.2 111.6 23.4 111.6 24.5C111.5 25.5 110.7 26.7 109.3 26.7ZM121.4 24.9C120 24.9 118.5 25.5 117.9 27L119.6 27.7C120 27 120.7 26.7 121.4 26.7C122.4 26.7 123.4 27.3 123.4 28.4V28.5C123 28.3 122.3 28 121.4 28C119.5 28 117.7 29.1 117.7 31C117.7 32.8 119.3 33.9 121 33.9C122.3 33.9 123 33.3 123.5 32.6H123.6V33.6H125.5V28.5C125.4 26.1 123.6 24.9 121.4 24.9ZM121.2 32C120.6 32 119.6 31.6 119.6 30.9C119.6 29.9 120.7 29.5 121.6 29.5C122.4 29.5 122.9 29.7 123.4 30C123.4 31.2 122.3 32 121.2 32ZM132.3 25.1L130 30.8H129.9L127.6 25.1H125.4L128.9 33.1L126.9 37.6H128.9L134.3 25.2H132.3V25.1ZM114.7 33.6H116.6V20.4H114.7V33.6Z" fill="white"/>
<path d="M13.1001 10C12.9001 10.2 12.6001 10.8 12.6001 11.4V34.6C12.6001 35.2 12.8001 35.8 13.1001 36L13.2001 36.1L26.2001 23.1V22.9L13.1001 10Z" fill="url(#paint0_linear_188_610)"/>
<path d="M30.6001 27.4999L26.3 23.2V22.9999L30.6001 18.7H30.7001L35.9 21.5999C37.3 22.3999 37.3 23.7999 35.9 24.5999L30.6001 27.4999Z" fill="url(#paint1_linear_188_610)"/>
<path d="M30.7001 27.4L26.2001 22.9L13.1001 36C13.6001 36.5 14.4001 36.6 15.3001 36.1L30.7001 27.4Z" fill="url(#paint2_linear_188_610)"/>
<path d="M30.7001 18.6L15.3001 9.8C14.5001 9.3 13.6001 9.3 13.1001 9.9L26.2001 23L30.7001 18.6Z" fill="url(#paint3_linear_188_610)"/>
<path opacity="0.2" d="M30.6 27.4L15.2999 36.1C14.4999 36.6 13.6999 36.6 13.2999 36.1L13.2 36.2L13.2999 36.3C13.7999 36.8 14.4999 36.8 15.2999 36.3L30.6 27.4Z" fill="black"/>
<path opacity="0.12" d="M13.1001 36C12.9001 35.6 12.6001 35.2 12.6001 34.6V34.7C12.6001 35.3 12.8001 35.9 13.1001 36.1V36ZM35.9001 24.4L30.6001 27.4L30.7001 27.5L35.9001 24.6C36.6001 24.2 37.0001 23.6 37.0001 23C36.9001 23.6 36.5001 24 35.9001 24.4Z" fill="black"/>
<path opacity="0.25" d="M15.3 10.1L35.8 21.8C36.5 22.2 36.9 22.6 36.9 23.1C36.9 22.5 36.5 22 35.8 21.5L15.3 9.80003C13.9 9.00003 12.7 9.70002 12.7 11.4V11.5C12.6 9.80002 13.9 9.20002 15.3 10.1Z" fill="white"/>
<rect x="0.5" y="0.5" width="143" height="45" rx="5.5" stroke="white"/>
<defs>
<linearGradient id="paint0_linear_188_610" x1="25.1103" y1="11.1626" x2="7.4719" y2="28.8011" gradientUnits="userSpaceOnUse">
<stop stop-color="#00A0FF"/>
<stop offset="0.007" stop-color="#00A1FF"/>
<stop offset="0.26" stop-color="#00BEFF"/>
<stop offset="0.512" stop-color="#00D2FF"/>
<stop offset="0.76" stop-color="#00DFFF"/>
<stop offset="1" stop-color="#00E3FF"/>
</linearGradient>
<linearGradient id="paint1_linear_188_610" x1="37.7596" y1="23.0845" x2="12.3298" y2="23.0845" gradientUnits="userSpaceOnUse">
<stop stop-color="#FFE000"/>
<stop offset="0.409" stop-color="#FFBD00"/>
<stop offset="0.775" stop-color="#FFA500"/>
<stop offset="1" stop-color="#FF9C00"/>
</linearGradient>
<linearGradient id="paint2_linear_188_610" x1="28.2618" y1="25.4124" x2="4.3433" y2="49.3309" gradientUnits="userSpaceOnUse">
<stop stop-color="#FF3A44"/>
<stop offset="1" stop-color="#C31162"/>
</linearGradient>
<linearGradient id="paint3_linear_188_610" x1="9.8461" y1="2.2193" x2="20.5265" y2="12.9009" gradientUnits="userSpaceOnUse">
<stop stop-color="#32A071"/>
<stop offset="0.069" stop-color="#2DA771"/>
<stop offset="0.476" stop-color="#15CF74"/>
<stop offset="0.801" stop-color="#06E775"/>
<stop offset="1" stop-color="#00F076"/>
</linearGradient>
</defs>
</svg>
