
<svg width="99" height="16" viewBox="0 0 99 16" fill="none" xmlns="http://www.w3.org/2000/svg">
<path fill-rule="evenodd" clip-rule="evenodd" d="M34.7127 0C34.8595 0 35.4226 0.179089 35.6793 0.295984C35.8073 0.360545 36.0212 0.50308 36.0149 0.73161C36.0099 0.913723 35.852 1.30109 34.8503 1.84954L34.8498 1.84979C34.3197 2.13993 34.1213 2.24853 33.7694 1.96091C33.7655 1.95775 33.3914 1.62942 33.6403 1.46769C34.2684 1.18459 34.6883 0.902284 34.8883 0.628653C34.9519 0.541738 35.0196 0.410249 34.9824 0.276655C34.9584 0.190872 34.8933 0.145236 34.8281 0.0995996C34.7859 0.0700372 34.7437 0.0404749 34.7127 0ZM32.77 1.80529C32.8416 1.79019 32.9157 1.77454 33.0556 1.82942C33.3535 1.94644 33.6339 2.34052 33.2545 2.52132C32.1591 2.88239 31.6109 2.9693 31.6069 2.9697C31.5202 2.97785 31.3185 2.92434 31.2485 2.7079C31.2205 2.62099 31.183 2.27307 31.5125 2.15749C31.7111 2.111 31.9059 2.05074 32.1006 1.99048C32.3217 1.92204 32.5429 1.8536 32.7697 1.80536L32.77 1.80529ZM30.4323 2.34354C30.4544 2.34125 30.4767 2.34085 30.4989 2.34236C30.7834 2.37418 30.8803 2.84531 30.5791 3.10882C30.33 3.32683 29.9583 3.22255 29.9967 2.8628C30.0158 2.68437 30.1674 2.39575 30.4323 2.34354ZM36.406 0.625909C36.4185 0.636963 36.4779 0.676749 36.5619 0.731026C37.3975 1.43043 35.6642 2.42656 33.8557 3.08868C33.4025 3.30643 33.7026 3.74652 33.7058 3.75086L33.7058 3.75087C33.8854 3.99202 34.0711 4.24131 35.8424 3.33483C36.2921 3.10472 37.6602 2.40454 37.6797 1.71698C37.6861 1.48773 37.5514 1.37058 37.4212 1.25726L37.421 1.25716L37.4193 1.256C37.3075 1.17797 37.1758 1.09074 37.0422 1.00472C36.8979 0.910754 36.7516 0.818178 36.6247 0.742636L36.4308 0.636918L36.4312 0.637167L36.4308 0.636954L36.4287 0.635928C36.4218 0.632495 36.413 0.628175 36.406 0.625909ZM40.2984 5.42067L40.3818 5.74466C40.4342 5.98434 40.4853 6.30228 40.5257 6.55367L40.5336 6.60289C40.5346 6.6973 40.5251 6.82577 40.4949 6.91518C39.9681 8.47018 32.585 11.3422 32.0003 10.2194C31.9975 10.2139 31.7476 9.65793 32.5171 9.43624C36.4934 8.6089 40.491 6.88073 40.2984 5.42067ZM29.7857 9.8432C30.6565 9.75339 30.6565 9.75339 30.8839 9.88317C31.2578 10.0964 31.3796 10.7074 30.6302 10.8582C27.8322 11.1622 27.7403 10.9547 27.5574 10.5414L27.5574 10.5414C27.5549 10.5355 27.3151 9.9551 27.9054 9.91118C28.8216 9.92643 29.4767 9.87515 29.7857 9.8432ZM26.1907 10.2496C26.1184 10.0224 26.113 9.67949 26.4069 9.72657C26.8053 9.84386 27.0749 10.4615 26.9244 10.7346C26.7738 11.0085 26.3417 10.723 26.1907 10.2496ZM34.0555 11.6583C33.991 11.5389 33.9472 11.1497 34.569 10.9342C38.1321 9.9551 40.439 8.65769 40.5893 7.54844C40.5759 7.89675 40.5384 8.36039 40.4988 8.70673C40.4944 8.72255 40.4901 8.74022 40.4856 8.75852C40.476 8.79758 40.4658 8.83947 40.453 8.87215C39.9592 10.1463 34.5182 12.5157 34.0555 11.6583ZM32.6283 11.3897C32.7272 11.3823 32.9371 11.3985 33.0966 11.5054C33.3655 11.6852 33.4039 12.1372 32.7509 12.3071C29.8535 12.8237 29.7091 12.6237 29.4906 12.3209C29.487 12.3161 29.1673 11.8438 29.8494 11.7456C30.8442 11.6706 31.5188 11.5741 31.9098 11.5063C31.967 11.4964 32.0292 11.4846 32.0938 11.4724L32.0941 11.4723L32.0944 11.4723L32.0946 11.4722C32.2727 11.4386 32.4688 11.4015 32.6283 11.3897ZM27.8045 12.2162C27.6876 12.028 27.6426 11.7324 28.0201 11.741C28.4731 11.7928 28.8563 12.2221 28.7846 12.4855C28.6946 12.8168 28.0716 12.6459 27.8045 12.2162ZM36.5398 12.0005C36.0156 12.2253 35.9848 12.555 36.0154 12.6527C36.224 13.32 39.4686 11.4973 39.8875 10.744C39.8925 10.7349 39.8979 10.7235 39.9029 10.7128L39.9098 10.6983L39.9546 10.5877L39.9546 10.5877C40.0323 10.3963 40.1232 10.1726 40.1854 9.99426L40.3028 9.61307C39.8727 10.6821 37.7604 11.5678 36.5398 12.0005ZM35.2624 12.5875C35.1425 12.508 34.9655 12.5101 34.8797 12.5239C34.4468 12.5937 34.0203 12.6938 33.5938 12.7939L33.5937 12.7939L33.5937 12.7939L33.5937 12.7939L33.5937 12.7939L33.5937 12.794C33.1786 12.8914 32.7634 12.9888 32.3424 13.0584C31.7672 13.1867 31.8749 13.478 31.9579 13.5701L31.9579 13.5702C32.1462 13.7786 32.295 13.9433 34.8657 13.2811C35.4294 13.0933 35.4599 12.7189 35.2624 12.5875ZM30.3746 13.262C29.9355 13.3015 29.9774 13.5399 30.1072 13.6811C30.4276 14.0298 31.1947 14.058 31.2164 13.7219C31.2304 13.5041 30.8581 13.2505 30.3746 13.262ZM36.9763 13.4401C36.977 13.4371 37.0589 13.1245 37.5178 12.8873C38.9887 12.2087 39.2946 11.7813 39.4774 11.5259L39.4775 11.5257C39.3378 11.7481 39.1371 12.0355 38.9851 12.2497L38.7918 12.492C38.7187 12.5744 38.5663 12.7457 38.2181 12.9783C38.205 12.9872 36.8922 13.854 36.9763 13.4401ZM35.7699 13.5419C36.3714 13.3462 36.3714 13.3462 36.4726 13.3913C36.6445 13.4682 36.4889 13.8 36.0396 13.9788C34.0742 14.6283 33.9545 14.4907 33.8487 14.3692L33.8487 14.3692C33.7939 14.3059 33.7456 14.0948 34.2283 13.9571C35.0179 13.7714 35.5026 13.6289 35.7699 13.5419ZM32.257 14.5946C32.1153 14.476 32.1824 14.3179 32.54 14.2585C32.9559 14.2117 33.209 14.3599 33.2319 14.4849C33.2803 14.7503 32.5424 14.8331 32.257 14.5946ZM39.981 4.50705L39.9746 4.49193C39.8275 4.17833 39.6182 3.76598 39.448 3.46434C40.0601 4.84932 36.1057 6.60944 32.0909 7.44585C31.3538 7.66044 31.5719 8.22322 31.5744 8.22874C32.083 9.34785 39.4706 6.48782 39.9837 4.97318C40.056 4.75989 40.0127 4.61398 39.981 4.50723L39.981 4.50705ZM30.5226 7.88003C30.3162 7.74841 30.3162 7.74841 29.4877 7.83414L29.4877 7.83414C29.1931 7.86452 28.5687 7.91356 27.6956 7.8991C27.1185 7.94473 27.2381 8.53735 27.2396 8.54327C27.3416 8.98783 27.3883 9.19072 30.2 8.88527C30.9414 8.73222 30.8702 8.10146 30.5226 7.88003ZM26.2716 7.72251C25.9852 7.67846 25.9035 8.02651 25.9194 8.25609C25.952 8.72709 26.3019 9.02807 26.5332 8.78403C26.7757 8.52788 26.6577 7.8398 26.2716 7.72251ZM38.6099 2.33682L38.916 2.70078C39.0568 2.88013 39.0819 3.08 38.9925 3.31142C38.7232 4.00897 37.4295 4.76267 36.3086 5.23551C33.0496 6.61011 32.8723 6.26402 32.7161 5.95884C32.7134 5.95371 32.4796 5.43143 33.1106 5.2004C36.816 4.17373 38.9293 2.76521 38.1356 1.85135C38.2465 1.95643 38.3784 2.09466 38.4971 2.21902C38.5366 2.2604 38.5746 2.30024 38.6099 2.33682ZM30.8105 5.69507C31.5553 5.56581 31.5553 5.56581 31.7478 5.67981C32.0825 5.87823 32.1686 6.47204 31.4753 6.6652C28.5683 7.18353 28.5391 6.99261 28.4754 6.57421C28.4745 6.56855 28.4164 6.00196 29.0302 5.90216C29.8898 5.83734 30.4728 5.75371 30.8104 5.69507L30.8105 5.69507ZM26.94 6.46468C26.9586 6.24285 27.116 5.89191 27.4588 5.89427C27.9108 5.9545 27.9534 6.6126 27.6212 6.8978C27.296 7.17696 26.9012 6.92594 26.94 6.46468ZM32.8523 3.55205C32.7395 3.49564 32.6029 3.49091 32.5781 3.49472C32.2401 3.54797 31.9073 3.62551 31.5746 3.70304C31.259 3.77655 30.9435 3.85007 30.6235 3.90286C30.1461 4.02581 30.1269 4.44828 30.148 4.55479C30.1996 4.81619 30.451 4.89351 30.5578 4.88864C30.5635 4.88838 31.2702 4.82435 32.7839 4.43487C33.3379 4.2287 33.1677 3.70971 32.8523 3.55205ZM29.2074 4.05763C29.1786 4.05375 29.1496 4.05217 29.1206 4.05289C28.7827 4.09011 28.5895 4.41357 28.5603 4.63119C28.5072 5.02829 28.8962 5.22513 29.2425 4.97674C29.6543 4.68142 29.5722 4.1214 29.2074 4.05763Z" fill="url(#paint0_linear_4_301)"/>
<path d="M2.68739 2.82911V11.9808H10.2411L8.93374 14.6681H0V0.141725H10.2702L8.9628 2.82911H2.68739ZM3.76234 6.05398H7.40847L6.11562 8.75589H3.76234V6.05398Z" fill="url(#paint1_linear_4_301)"/>
<path d="M19.1183 8.45084L16.4164 2.84364L19.1328 8.43631L19.1183 8.45084ZM15.109 0.141725L20.629 11.5304L19.1183 14.6681L12.1165 0.141725H15.109ZM21.8347 2.84364H17.6221L16.3147 0.141725H23.1421H24.3187H26.1345L21.2391 10.2957L19.7284 7.20156L20.0625 6.48977L20.077 6.5043L21.8347 2.84364Z" fill="url(#paint2_linear_4_301)"/>
<path d="M54.718 4.44154C54.718 5.40029 54.4323 6.25735 53.8609 7.01272C53.2992 7.76809 52.5778 8.28136 51.6965 8.55252L54.6453 14.6681H51.6529L47.4983 6.05398H50.4182C50.8636 6.05398 51.2413 5.89903 51.5512 5.58913C51.8708 5.26955 52.0306 4.88702 52.0306 4.44154C52.0306 3.99607 51.8708 3.61838 51.5512 3.30848C51.2413 2.9889 50.8636 2.82911 50.4182 2.82911H46.4234V8.3782V14.6681H43.736V0.141725H50.4182C51.5996 0.141725 52.6116 0.562992 53.4542 1.40552C54.2967 2.24806 54.718 3.26006 54.718 4.44154Z" fill="url(#paint3_linear_4_301)"/>
<path d="M57.4178 0.141725H60.6572V2.82911H57.4178V0.141725ZM68.7194 11.9808V14.6681H65.4945V11.9808H68.7194ZM64.4196 2.82911V14.6681H63.301H57.4178V11.9808H61.7177L61.7322 0.141725H63.0686H68.7194V2.82911H64.4196Z" fill="url(#paint4_linear_4_301)"/>
<path d="M77.5232 12.3914C78.1914 12.3914 78.8064 12.1977 79.3681 11.8103L81.2856 13.7278C80.2009 14.6381 78.9468 15.0933 77.5232 15.0933C76.1093 15.0933 74.8552 14.6381 73.7609 13.7278L75.6929 11.8103C76.2352 12.1977 76.8453 12.3914 77.5232 12.3914ZM80.719 0.141725H83.421V9.2101C83.421 10.6046 82.9658 11.8588 82.0555 12.9724L80.1235 11.0404C80.5205 10.5078 80.719 9.89769 80.719 9.2101V0.141725ZM74.3419 9.2101C74.3419 9.888 74.5356 10.4981 74.923 11.0404L73.0055 12.9724C72.0952 11.8781 71.64 10.624 71.64 9.2101V0.141725H74.3419V9.2101Z" fill="url(#paint5_linear_4_301)"/>
<path d="M86.5207 0L92.2229 4.99355V8.814L89.2227 6.66409V14.6681H86.5207V0ZM93.2979 4.99355L99 0V14.6681H96.2981V6.66409L93.2979 8.814V6.0685V4.99355Z" fill="url(#paint6_linear_4_301)"/>
<defs>
<linearGradient id="paint0_linear_4_301" x1="36.5641" y1="1.70065" x2="30.1866" y2="13.6052" gradientUnits="userSpaceOnUse">
<stop stop-color="#FAC10A"/>
<stop offset="1" stop-color="#9D01E6"/>
</linearGradient>
<linearGradient id="paint1_linear_4_301" x1="3.17129" y1="0.212581" x2="96.4947" y2="14.6681" gradientUnits="userSpaceOnUse">
<stop stop-color="#AD00FF"/>
<stop offset="1" stop-color="#FFC700"/>
</linearGradient>
<linearGradient id="paint2_linear_4_301" x1="3.17129" y1="0.212581" x2="96.4947" y2="14.6681" gradientUnits="userSpaceOnUse">
<stop stop-color="#AD00FF"/>
<stop offset="1" stop-color="#FFC700"/>
</linearGradient>
<linearGradient id="paint3_linear_4_301" x1="3.17129" y1="0.212581" x2="96.4947" y2="14.6681" gradientUnits="userSpaceOnUse">
<stop stop-color="#AD00FF"/>
<stop offset="1" stop-color="#FFC700"/>
</linearGradient>
<linearGradient id="paint4_linear_4_301" x1="3.17129" y1="0.212581" x2="96.4947" y2="14.6681" gradientUnits="userSpaceOnUse">
<stop stop-color="#AD00FF"/>
<stop offset="1" stop-color="#FFC700"/>
</linearGradient>
<linearGradient id="paint5_linear_4_301" x1="3.17129" y1="0.212581" x2="96.4947" y2="14.6681" gradientUnits="userSpaceOnUse">
<stop stop-color="#AD00FF"/>
<stop offset="1" stop-color="#FFC700"/>
</linearGradient>
<linearGradient id="paint6_linear_4_301" x1="3.17129" y1="0.212581" x2="96.4947" y2="14.6681" gradientUnits="userSpaceOnUse">
<stop stop-color="#AD00FF"/>
<stop offset="1" stop-color="#FFC700"/>
</linearGradient>
</defs>
</svg>
