
<svg width="150" height="18" viewBox="0 0 150 18" fill="none" xmlns="http://www.w3.org/2000/svg">
<path fill-rule="evenodd" clip-rule="evenodd" d="M45.2236 6.1738L45.2648 6.81695L44.5784 6.7382C42.0798 6.43631 39.897 5.41252 38.0436 3.69308L37.1375 2.83992L36.9041 3.46994C36.4099 4.87437 36.7257 6.35756 37.7553 7.3551C38.3044 7.90637 38.1809 7.98512 37.2336 7.65698C36.9041 7.55198 36.6158 7.47323 36.5884 7.5126C36.4923 7.60448 36.8218 8.7989 37.0826 9.27142C37.4395 9.9277 38.1672 10.5709 38.9634 10.9515L39.6361 11.2534L38.8399 11.2665C38.0711 11.2665 38.0436 11.2796 38.126 11.5553C38.4005 12.4084 39.4851 13.3141 40.6932 13.7079L41.5444 13.9835L40.803 14.4035C39.7048 15.0073 38.4143 15.3485 37.1238 15.3748C36.506 15.3879 35.998 15.4404 35.998 15.4798C35.998 15.6111 37.6729 16.3461 38.6477 16.6348C41.5718 17.488 45.0452 17.1205 47.6536 15.6636C49.5069 14.6266 51.3603 12.5659 52.2252 10.5709C52.692 9.50768 53.1587 7.5651 53.1587 6.63319C53.1587 6.02942 53.1999 5.95067 53.9687 5.22876C54.4218 4.80874 54.8473 4.34935 54.9297 4.2181C55.067 3.96871 55.0533 3.96871 54.3531 4.19185C53.1862 4.58561 53.0214 4.53311 53.598 3.94246C54.0236 3.52244 54.5316 2.76116 54.5316 2.53803C54.5316 2.49865 54.3257 2.56428 54.0923 2.68241C53.8452 2.81367 53.296 3.01055 52.8842 3.12868L52.1428 3.35181L51.4701 2.91867C51.0995 2.68241 50.5778 2.4199 50.3032 2.34115C49.603 2.15739 48.5322 2.18364 47.9007 2.39365C46.1846 2.9843 45.1001 4.50686 45.2236 6.1738Z" fill="#BDB3C6"/>
<path fill-rule="evenodd" clip-rule="evenodd" d="M89.999 11.8547V10.8745C89.999 10.7826 89.9439 10.7213 89.7786 10.8132L85.5903 12.1611H85.5903C85.5628 12.1611 85.5628 12.1611 85.5352 12.1917C85.1814 12.6082 84.8747 12.9199 84.7102 13.087C84.6569 13.1411 84.6186 13.1801 84.5984 13.2026C84.3504 13.4476 84.0198 13.5701 83.6891 13.5701H82.1736V11.8547H83.386C83.4136 11.8547 83.4411 11.8547 83.4687 11.8241L83.634 11.6709C83.7166 11.6097 83.7993 11.5178 83.882 11.4259L83.882 11.4259C83.9385 11.384 83.9821 11.3278 84.0216 11.2769C84.04 11.2533 84.0574 11.2309 84.0749 11.2115C84.1314 11.1696 84.175 11.1134 84.2145 11.0625C84.2328 11.0389 84.2503 11.0164 84.2677 10.997C84.3091 10.9358 84.3573 10.8745 84.4055 10.8132C84.4537 10.752 84.502 10.6907 84.5433 10.6294C84.6259 10.5376 84.681 10.4457 84.7361 10.3538L84.7362 10.3537C84.7637 10.3078 84.7982 10.2619 84.8326 10.2159C84.867 10.17 84.9015 10.124 84.929 10.0781C84.9484 10.0136 84.9813 9.96419 85.0182 9.90872C85.0339 9.88512 85.0504 9.86042 85.0668 9.833L85.0668 9.83298C85.1219 9.74109 85.177 9.6492 85.2046 9.58794L85.2046 9.58787C85.3148 9.37346 85.425 9.15906 85.5077 8.94466C85.5498 8.85106 85.5758 8.75745 85.598 8.6775C85.6049 8.6528 85.6114 8.6294 85.6179 8.6077C85.6317 8.54644 85.6455 8.49283 85.6592 8.43922C85.673 8.38562 85.6868 8.33201 85.7006 8.27075C85.7019 8.25688 85.7033 8.2431 85.7047 8.22938C85.7307 7.97033 85.7543 7.73613 85.7281 7.4743C85.7281 7.38241 85.7281 7.29051 85.7006 7.22924C85.7006 7.19861 85.7006 7.13735 85.673 7.07608C85.6455 6.80039 85.5628 6.55533 85.4526 6.31027C85.4388 6.26432 85.4181 6.21837 85.3975 6.17243C85.3768 6.12648 85.3561 6.08053 85.3424 6.03458C85.2872 5.94268 85.239 5.85079 85.1908 5.75889C85.1426 5.66699 85.0944 5.57509 85.0393 5.4832C85.022 5.42551 84.9938 5.3799 84.9684 5.33878C84.9534 5.31439 84.9393 5.29158 84.929 5.26877C84.8877 5.20751 84.8395 5.13858 84.7913 5.06965C84.743 5.00073 84.6948 4.93181 84.6535 4.87055C84.6122 4.8246 84.5777 4.77099 84.5433 4.71739C84.5088 4.66378 84.4744 4.61017 84.4331 4.56423C84.3917 4.51828 84.3573 4.47233 84.3228 4.42638C84.2884 4.38043 84.254 4.33449 84.2126 4.28854C83.9371 3.95158 83.6615 3.64525 83.4136 3.40019C83.3958 3.36063 83.3665 3.33384 83.3331 3.30333C83.3148 3.28659 83.2953 3.26873 83.2758 3.24703C83.0829 3.06324 82.89 2.87945 82.7523 2.75692C82.6696 2.69566 82.6145 2.6344 82.5594 2.57314L82.5594 2.57312C82.4767 2.51185 82.4216 2.45059 82.394 2.41996C82.394 2.38933 82.3665 2.38932 82.3665 2.38932L82.2012 2.32806V0.857703C82.2012 0.612644 82.1185 0.398217 81.9807 0.245055C81.843 0.0918935 81.6501 0 81.4297 0C81.0163 0 80.6581 0.398219 80.6581 0.888338V1.89921L80.5755 1.86857L80.355 1.80731L80.1622 1.74605L78.6467 1.28656C78.5916 1.25593 78.5365 1.34782 78.564 1.40909L78.812 1.89921L78.8947 2.083C78.9084 2.12895 78.9291 2.1749 78.9498 2.22085C78.9704 2.2668 78.9911 2.31275 79.0049 2.35869C79.0187 2.40464 79.0393 2.44293 79.06 2.48122C79.0806 2.51951 79.1013 2.55781 79.1151 2.60375C79.1978 2.78755 79.2804 3.00197 79.3631 3.2164L79.3631 3.2164L79.5284 3.67589C79.6662 4.04348 79.8039 4.47233 79.9142 4.90118C79.9603 5.00383 79.9872 5.12796 80.0108 5.23758C80.0154 5.25882 80.0199 5.27951 80.0244 5.2994L80.0519 5.36067C80.107 5.5751 80.1346 5.75889 80.1622 5.97332C80.1897 6.09585 80.2173 6.24901 80.2173 6.37153C80.2173 6.44812 80.2242 6.5247 80.231 6.60128C80.2379 6.67786 80.2448 6.75444 80.2448 6.83102C80.2724 6.98418 80.2724 7.13735 80.2724 7.25988C80.2724 7.62747 80.2448 7.96442 80.1897 8.27075L80.107 8.54644C80.0968 8.58065 80.0827 8.6191 80.0677 8.66022C80.0423 8.72956 80.0141 8.80648 79.9968 8.8834C79.9693 8.97529 79.9417 9.03655 79.9142 9.09781L79.9142 9.09782C79.7764 9.46541 79.6111 9.86363 79.4182 10.2006C79.1426 10.7213 78.8947 11.1502 78.7018 11.4565C78.6742 11.5178 78.6467 11.5484 78.6191 11.579C78.564 11.6709 78.6191 11.7935 78.7293 11.7935H80.6857V13.5089H78.7018C78.1782 13.5089 77.6823 13.2026 77.4343 12.6512C77.3241 12.3755 77.269 12.0692 77.2965 11.7935C77.2965 11.7322 77.2414 11.6403 77.1587 11.6403H73.1083C73.0532 11.6403 72.998 11.7016 72.998 11.7628V11.8547C72.998 14.7036 75.0646 17.001 77.5996 17.001H84.7913C86.12 17.001 86.882 15.6483 87.6347 14.312C87.8498 13.9302 88.0641 13.5497 88.2907 13.2026C88.6764 12.5899 89.6408 12.0998 89.9164 11.9773C89.9715 11.9466 89.999 11.916 89.999 11.8547ZM74.1016 9.6184L74.0465 9.7103C73.9914 9.80219 74.0465 9.92472 74.1291 9.95536H77.8214C77.8765 9.95536 77.904 9.92472 77.9316 9.89409L77.9316 9.89409C77.9867 9.83282 78.0418 9.74093 78.0694 9.64903C78.4 9.06702 78.6756 8.42373 78.7858 7.93362C79.0062 6.76958 78.5102 4.93164 77.904 3.43065C77.8489 3.30812 77.7387 3.30812 77.6836 3.40002L74.1016 9.6184Z" fill="#BDB3C6"/>
<path d="M121.992 5.7558C121.082 5.7558 120.241 5.47176 119.566 4.99261C118.792 4.44332 118.236 3.63759 118.04 2.70891C117.991 2.47945 117.965 2.24266 117.963 2H115.361V8.69236L115.358 12.3581C115.358 13.3381 114.68 14.1691 113.74 14.4613C113.467 14.5461 113.173 14.5863 112.866 14.5705C112.474 14.5502 112.108 14.439 111.789 14.2594C111.11 13.8774 110.65 13.1843 110.638 12.3915C110.618 11.1524 111.682 10.1422 112.998 10.1422C113.257 10.1422 113.507 10.1821 113.74 10.2545V8.42534V7.76779C113.494 7.73346 113.243 7.71556 112.99 7.71556C111.55 7.71556 110.203 8.27893 109.241 9.29387C108.513 10.0609 108.077 11.0394 108.01 12.0655C107.921 13.4135 108.445 14.6949 109.462 15.6403C109.611 15.7791 109.768 15.9079 109.932 16.0267C110.803 16.6579 111.868 17 112.99 17C113.243 17 113.494 16.9824 113.74 16.9481C114.788 16.8019 115.755 16.3504 116.518 15.6403C117.456 14.7679 117.974 13.6098 117.979 12.3771L117.966 6.90307C118.413 7.22789 118.902 7.49667 119.427 7.70529C120.243 8.02952 121.109 8.19383 122 8.19354V6.41511V5.75521C122.001 5.7558 121.993 5.7558 121.992 5.7558Z" fill="#BDB3C6"/>
<path fill-rule="evenodd" clip-rule="evenodd" d="M147.32 17V9.49912H149.686L150 6.91428H147.32L147.324 5.62054C147.324 4.94637 147.397 4.58514 148.504 4.58514H149.983V2H147.616C144.773 2 143.772 3.25393 143.772 5.36264V6.91457H142V9.49941H143.772V17H147.32Z" fill="#BDB3C6"/>
<path fill-rule="evenodd" clip-rule="evenodd" d="M5.28923 0.0572988C6.24914 0.013616 6.55586 0.00292969 8.99987 0.00292969H8.99706C11.4418 0.00292969 11.7474 0.013616 12.7073 0.0572988C13.6653 0.101169 14.3197 0.25284 14.8934 0.475378C15.4858 0.705041 15.9864 1.01251 16.4869 1.51308C16.9875 2.01327 17.295 2.51534 17.5256 3.10722C17.7468 3.67941 17.8987 4.33333 17.9437 5.29136C17.9868 6.25125 17.998 6.55797 17.998 9.00195C17.998 11.4459 17.9868 11.7519 17.9437 12.7118C17.8987 13.6694 17.7468 14.3236 17.5256 14.8959C17.295 15.4876 16.9875 15.9897 16.4869 16.4899C15.9869 16.9905 15.4856 17.2987 14.8939 17.5285C14.3213 17.7511 13.6667 17.9027 12.7086 17.9466C11.7487 17.9903 11.4429 18.001 8.99874 18.001C6.55492 18.001 6.24839 17.9903 5.28848 17.9466C4.33064 17.9027 3.67651 17.7511 3.10395 17.5285C2.51244 17.2987 2.01037 16.9905 1.51035 16.4899C1.00996 15.9897 0.702494 15.4876 0.472454 14.8958C0.2501 14.3236 0.0984278 13.6696 0.0543697 12.7116C0.0108739 11.7517 0 11.4459 0 9.00195C0 6.55797 0.0112489 6.25106 0.0541822 5.29117C0.097303 4.33352 0.249163 3.67941 0.472266 3.10703C0.702869 2.51534 1.01034 2.01327 1.51091 1.51308C2.01112 1.0127 2.51319 0.705229 3.10507 0.475378C3.67726 0.25284 4.3312 0.101169 5.28923 0.0572988ZM8.69671 1.62293C8.51473 1.62285 8.3461 1.62277 8.18935 1.62302V1.62077C6.51213 1.62264 6.19041 1.63389 5.36024 1.67139C4.48282 1.7117 4.00642 1.85793 3.6892 1.98167C3.26924 2.14515 2.96927 2.34013 2.6543 2.65509C2.33933 2.97006 2.14397 3.27003 1.98086 3.68998C1.85769 4.0072 1.71108 4.4834 1.67095 5.3608C1.62783 6.30945 1.61921 6.59292 1.61921 8.99603C1.61921 11.3991 1.62783 11.6841 1.67095 12.6328C1.71089 13.5102 1.85769 13.9864 1.98086 14.3032C2.14435 14.7234 2.33933 15.0226 2.6543 15.3375C2.96927 15.6525 3.26924 15.8475 3.6892 16.0106C4.00661 16.1338 4.48282 16.2804 5.36024 16.3209C6.3089 16.364 6.59368 16.3734 8.99665 16.3734C11.3994 16.3734 11.6844 16.364 12.6331 16.3209C13.5105 16.2807 13.9871 16.1345 14.3039 16.0108C14.7241 15.8477 15.0231 15.6527 15.3381 15.3377C15.653 15.0229 15.8484 14.7239 16.0115 14.304C16.1347 13.9871 16.2813 13.5109 16.3214 12.6335C16.3645 11.6849 16.3739 11.3999 16.3739 8.99828C16.3739 6.59667 16.3645 6.3117 16.3214 5.36305C16.2815 4.48565 16.1347 4.00945 16.0115 3.69261C15.848 3.27265 15.653 2.97269 15.3381 2.65772C15.0233 2.34275 14.7239 2.14777 14.3039 1.98467C13.9867 1.86149 13.5105 1.71488 12.6331 1.67476C11.6842 1.63164 11.3994 1.62302 8.99665 1.62302C8.8928 1.62302 8.79289 1.62297 8.69671 1.62293Z" fill="#BDB3C6"/>
<path fill-rule="evenodd" clip-rule="evenodd" d="M13.8002 3.12147C13.204 3.12147 12.7203 3.6046 12.7203 4.20098C12.7203 4.79716 13.204 5.28086 13.8002 5.28086C14.3964 5.28086 14.88 4.79716 14.88 4.20098C14.88 3.60479 14.3964 3.12109 13.8002 3.12109V3.12147Z" fill="#BDB3C6"/>
<path fill-rule="evenodd" clip-rule="evenodd" d="M4.36865 9.00516C4.36865 6.45306 6.43777 4.38389 8.98985 4.38379C11.542 4.38379 13.6107 6.453 13.6107 9.00516C13.6107 11.5573 11.5422 13.6256 8.99004 13.6256C6.43787 13.6256 4.36865 11.5573 4.36865 9.00516ZM11.9909 9.00132C11.9909 7.34456 10.6478 6.00164 8.99124 6.00164C7.33448 6.00164 5.99157 7.34456 5.99157 9.00132C5.99157 10.6579 7.33448 12.001 8.99124 12.001C10.6478 12.001 11.9909 10.6579 11.9909 9.00132Z" fill="#BDB3C6"/>
</svg>



