
<svg width="20" height="20" viewBox="0 0 14 12" fill="none" xmlns="http://www.w3.org/2000/svg">
<path d="M1.00375 7.11621C1.10977 7.11621 1.21145 7.15833 1.28642 7.23329C1.36138 7.30826 1.4035 7.40994 1.4035 7.51596V9.5147C1.4035 9.72674 1.48773 9.9301 1.63767 10.08C1.7876 10.23 1.99096 10.3142 2.203 10.3142H11.797C12.009 10.3142 12.2124 10.23 12.3623 10.08C12.5122 9.9301 12.5965 9.72674 12.5965 9.5147V7.51596C12.5965 7.40994 12.6386 7.30826 12.7135 7.23329C12.7885 7.15833 12.8902 7.11621 12.9962 7.11621C13.1022 7.11621 13.2039 7.15833 13.2789 7.23329C13.3538 7.30826 13.396 7.40994 13.396 7.51596V9.5147C13.396 9.93878 13.2275 10.3455 12.9276 10.6454C12.6277 10.9452 12.221 11.1137 11.797 11.1137H2.203C1.77892 11.1137 1.37221 10.9452 1.07234 10.6454C0.772469 10.3455 0.604004 9.93878 0.604004 9.5147V7.51596C0.604004 7.40994 0.64612 7.30826 0.721088 7.23329C0.796055 7.15833 0.897732 7.11621 1.00375 7.11621Z" fill="#1F043B"/>
<path d="M6.71689 0.117441C6.75403 0.080214 6.79814 0.0506783 6.84671 0.0305258C6.89527 0.0103733 6.94734 0 6.99992 0C7.0525 0 7.10456 0.0103733 7.15313 0.0305258C7.20169 0.0506783 7.2458 0.080214 7.28294 0.117441L9.68143 2.51593C9.75649 2.59099 9.79866 2.6928 9.79866 2.79895C9.79866 2.90511 9.75649 3.00691 9.68143 3.08198C9.60637 3.15704 9.50456 3.19921 9.39841 3.19921C9.29225 3.19921 9.19045 3.15704 9.11538 3.08198L7.39966 1.36546V8.39543C7.39966 8.50145 7.35755 8.60313 7.28258 8.6781C7.20761 8.75306 7.10594 8.79518 6.99992 8.79518C6.8939 8.79518 6.79222 8.75306 6.71725 8.6781C6.64228 8.60313 6.60017 8.50145 6.60017 8.39543V1.36546L4.88445 3.08198C4.84728 3.11914 4.80316 3.14862 4.7546 3.16874C4.70603 3.18885 4.65399 3.19921 4.60143 3.19921C4.54886 3.19921 4.49682 3.18885 4.44825 3.16874C4.39969 3.14862 4.35557 3.11914 4.3184 3.08198C4.28124 3.04481 4.25175 3.00068 4.23164 2.95212C4.21152 2.90356 4.20117 2.85152 4.20117 2.79895C4.20117 2.74639 4.21152 2.69434 4.23164 2.64578C4.25175 2.59722 4.28124 2.5531 4.3184 2.51593L6.71689 0.117441Z" fill="#1F043B"/>
</svg>
