<svg width="60" height="61" viewBox="0 0 60 61" fill="none" xmlns="http://www.w3.org/2000/svg">
<path d="M47.5 55.6668H12.5C11.1739 55.6668 9.90215 55.14 8.96447 54.2023C8.02678 53.2646 7.5 51.9928 7.5 50.6668V48.1668C7.50397 44.8528 8.8222 41.6757 11.1655 39.3323C13.5089 36.989 16.686 35.6707 20 35.6668H40C43.314 35.6707 46.4911 36.989 48.8345 39.3323C51.1778 41.6757 52.496 44.8528 52.5 48.1668V50.6668C52.5 51.9928 51.9732 53.2646 51.0355 54.2023C50.0979 55.14 48.8261 55.6668 47.5 55.6668ZM30 30.6668C27.5277 30.6668 25.111 29.9336 23.0554 28.5601C20.9998 27.1866 19.3976 25.2344 18.4515 22.9503C17.5054 20.6662 17.2579 18.1529 17.7402 15.7281C18.2225 13.3034 19.413 11.0761 21.1612 9.32792C22.9093 7.57976 25.1366 6.38925 27.5614 5.90694C29.9861 5.42462 32.4995 5.67216 34.7835 6.61826C37.0676 7.56436 39.0199 9.16651 40.3934 11.2221C41.7669 13.2777 42.5 15.6945 42.5 18.1668C42.496 21.4807 41.1778 24.6579 38.8344 27.0012C36.4911 29.3446 33.314 30.6628 30 30.6668Z" fill="currentColor"/>
</svg>
